<svg width="76" height="76" viewBox="0 0 76 76" fill="none" xmlns="http://www.w3.org/2000/svg">
<rect width="76" height="76" fill="white"/>
<line opacity="0.1" x1="3" y1="13.5" x2="73" y2="13.5" stroke="black" stroke-width="5"/>
<line opacity="0.1" x1="3" y1="57.5" x2="73" y2="57.5" stroke="black" stroke-width="5"/>
<path d="M24.6328 38.2969C24.6328 39.8698 24.3073 41.0729 23.6562 41.9062C23.0052 42.7396 22.0521 43.1562 20.7969 43.1562C19.5573 43.1562 18.6094 42.7474 17.9531 41.9297C17.2969 41.112 16.9609 39.9401 16.9453 38.4141V36.3203C16.9453 34.7318 17.2734 33.526 17.9297 32.7031C18.5911 31.8802 19.5417 31.4688 20.7812 31.4688C22.0208 31.4688 22.9688 31.8776 23.625 32.6953C24.2812 33.5078 24.6172 34.6771 24.6328 36.2031V38.2969ZM22.375 36C22.375 35.0573 22.2448 34.3724 21.9844 33.9453C21.7292 33.513 21.3281 33.2969 20.7812 33.2969C20.25 33.2969 19.8568 33.5026 19.6016 33.9141C19.3516 34.3203 19.2188 34.9583 19.2031 35.8281V38.5938C19.2031 39.5208 19.3281 40.2109 19.5781 40.6641C19.8333 41.112 20.2396 41.3359 20.7969 41.3359C21.349 41.3359 21.7474 41.1198 21.9922 40.6875C22.237 40.2552 22.3646 39.5938 22.375 38.7031V36ZM35.4062 41.5625C34.9844 42.0677 34.388 42.4609 33.6172 42.7422C32.8464 43.0182 31.9922 43.1562 31.0547 43.1562C30.0703 43.1562 29.2057 42.9427 28.4609 42.5156C27.7214 42.0833 27.1484 41.4583 26.7422 40.6406C26.3411 39.8229 26.1354 38.862 26.125 37.7578V36.9844C26.125 35.849 26.3151 34.8672 26.6953 34.0391C27.0807 33.2057 27.6328 32.5703 28.3516 32.1328C29.0755 31.6901 29.9219 31.4688 30.8906 31.4688C32.2396 31.4688 33.2943 31.7917 34.0547 32.4375C34.8151 33.0781 35.2656 34.013 35.4062 35.2422H33.125C33.0208 34.5911 32.7891 34.1146 32.4297 33.8125C32.0755 33.5104 31.5859 33.3594 30.9609 33.3594C30.1641 33.3594 29.5573 33.6589 29.1406 34.2578C28.724 34.8568 28.513 35.7474 28.5078 36.9297V37.6562C28.5078 38.849 28.7344 39.75 29.1875 40.3594C29.6406 40.9688 30.3047 41.2734 31.1797 41.2734C32.0599 41.2734 32.6875 41.0859 33.0625 40.7109V38.75H30.9297V37.0234H35.4062V41.5625ZM48.8516 43H41.0547V41.4531L44.7344 37.5312C45.2396 36.9792 45.612 36.4974 45.8516 36.0859C46.0964 35.6745 46.2188 35.2839 46.2188 34.9141C46.2188 34.4089 46.0911 34.013 45.8359 33.7266C45.5807 33.4349 45.2161 33.2891 44.7422 33.2891C44.2318 33.2891 43.8281 33.4661 43.5312 33.8203C43.2396 34.1693 43.0938 34.6302 43.0938 35.2031H40.8281C40.8281 34.5104 40.9922 33.8776 41.3203 33.3047C41.6536 32.7318 42.1224 32.2839 42.7266 31.9609C43.3307 31.6328 44.0156 31.4688 44.7812 31.4688C45.9531 31.4688 46.862 31.75 47.5078 32.3125C48.1589 32.875 48.4844 33.6693 48.4844 34.6953C48.4844 35.2578 48.3385 35.8307 48.0469 36.4141C47.7552 36.9974 47.2552 37.6771 46.5469 38.4531L43.9609 41.1797H48.8516V43ZM52.8281 38.9922V43H50.4844V31.625H54.9219C55.776 31.625 56.526 31.7812 57.1719 32.0938C57.8229 32.4062 58.3229 32.8516 58.6719 33.4297C59.0208 34.0026 59.1953 34.6562 59.1953 35.3906C59.1953 36.5052 58.8125 37.3854 58.0469 38.0312C57.2865 38.6719 56.2318 38.9922 54.8828 38.9922H52.8281ZM52.8281 37.0938H54.9219C55.5417 37.0938 56.013 36.9479 56.3359 36.6562C56.6641 36.3646 56.8281 35.9479 56.8281 35.4062C56.8281 34.849 56.6641 34.3984 56.3359 34.0547C56.0078 33.7109 55.5547 33.5339 54.9766 33.5234H52.8281V37.0938Z" fill="black"/>
<line x1="5.5" y1="55" x2="5.5" y2="16" stroke="black" stroke-width="5"/>
<line x1="70.5" y1="55" x2="70.5" y2="16" stroke="black" stroke-width="5"/>
</svg>
