<svg width="76" height="76" viewBox="0 0 76 76" fill="none" xmlns="http://www.w3.org/2000/svg">
<rect width="76" height="76" fill="white"/>
<line x1="3" y1="13.5" x2="73" y2="13.5" stroke="black" stroke-width="5"/>
<line x1="3" y1="57.5" x2="73" y2="57.5" stroke="black" stroke-width="5"/>
<path d="M24.7734 43H16.9766V41.4531L20.6562 37.5312C21.1615 36.9792 21.5339 36.4974 21.7734 36.0859C22.0182 35.6745 22.1406 35.2839 22.1406 34.9141C22.1406 34.4089 22.013 34.013 21.7578 33.7266C21.5026 33.4349 21.138 33.2891 20.6641 33.2891C20.1536 33.2891 19.75 33.4661 19.4531 33.8203C19.1615 34.1693 19.0156 34.6302 19.0156 35.2031H16.75C16.75 34.5104 16.9141 33.8776 17.2422 33.3047C17.5755 32.7318 18.0443 32.2839 18.6484 31.9609C19.2526 31.6328 19.9375 31.4688 20.7031 31.4688C21.875 31.4688 22.7839 31.75 23.4297 32.3125C24.0807 32.875 24.4062 33.6693 24.4062 34.6953C24.4062 35.2578 24.2604 35.8307 23.9688 36.4141C23.6771 36.9974 23.1771 37.6771 22.4688 38.4531L19.8828 41.1797H24.7734V43ZM35.4062 41.5625C34.9844 42.0677 34.388 42.4609 33.6172 42.7422C32.8464 43.0182 31.9922 43.1562 31.0547 43.1562C30.0703 43.1562 29.2057 42.9427 28.4609 42.5156C27.7214 42.0833 27.1484 41.4583 26.7422 40.6406C26.3411 39.8229 26.1354 38.862 26.125 37.7578V36.9844C26.125 35.849 26.3151 34.8672 26.6953 34.0391C27.0807 33.2057 27.6328 32.5703 28.3516 32.1328C29.0755 31.6901 29.9219 31.4688 30.8906 31.4688C32.2396 31.4688 33.2943 31.7917 34.0547 32.4375C34.8151 33.0781 35.2656 34.013 35.4062 35.2422H33.125C33.0208 34.5911 32.7891 34.1146 32.4297 33.8125C32.0755 33.5104 31.5859 33.3594 30.9609 33.3594C30.1641 33.3594 29.5573 33.6589 29.1406 34.2578C28.724 34.8568 28.513 35.7474 28.5078 36.9297V37.6562C28.5078 38.849 28.7344 39.75 29.1875 40.3594C29.6406 40.9688 30.3047 41.2734 31.1797 41.2734C32.0599 41.2734 32.6875 41.0859 33.0625 40.7109V38.75H30.9297V37.0234H35.4062V41.5625ZM46.5391 43H44.2812V34.2969L41.5859 35.1328V33.2969L46.2969 31.6094H46.5391V43ZM52.8281 38.9922V43H50.4844V31.625H54.9219C55.776 31.625 56.526 31.7812 57.1719 32.0938C57.8229 32.4062 58.3229 32.8516 58.6719 33.4297C59.0208 34.0026 59.1953 34.6562 59.1953 35.3906C59.1953 36.5052 58.8125 37.3854 58.0469 38.0312C57.2865 38.6719 56.2318 38.9922 54.8828 38.9922H52.8281ZM52.8281 37.0938H54.9219C55.5417 37.0938 56.013 36.9479 56.3359 36.6562C56.6641 36.3646 56.8281 35.9479 56.8281 35.4062C56.8281 34.849 56.6641 34.3984 56.3359 34.0547C56.0078 33.7109 55.5547 33.5339 54.9766 33.5234H52.8281V37.0938Z" fill="black"/>
<line x1="5.5" y1="55" x2="5.5" y2="16" stroke="black" stroke-width="5"/>
<line opacity="0.1" x1="70.5" y1="55" x2="70.5" y2="16" stroke="black" stroke-width="5"/>
</svg>
