<svg width="100" height="65" viewBox="0 0 100 65" fill="none" xmlns="http://www.w3.org/2000/svg">
<rect width="100" height="65" fill="white"/>
<line x1="4" y1="10" x2="96" y2="10" stroke="black" stroke-width="2"/>
<line x1="4" y1="54" x2="96" y2="54" stroke="black" stroke-width="2"/>
<line opacity="0.5" x1="5" y1="11" x2="5" y2="53" stroke="black" stroke-width="2" stroke-dasharray="4 4"/>
<path d="M41.2988 36H35.709V35.2207L38.6621 31.9395C39.0996 31.4434 39.4004 31.041 39.5645 30.7324C39.7324 30.4199 39.8164 30.0977 39.8164 29.7656C39.8164 29.3203 39.6816 28.9551 39.4121 28.6699C39.1426 28.3848 38.7832 28.2422 38.334 28.2422C37.7949 28.2422 37.375 28.3965 37.0742 28.7051C36.7773 29.0098 36.6289 29.4355 36.6289 29.9824H35.5449C35.5449 29.1973 35.7969 28.5625 36.3008 28.0781C36.8086 27.5938 37.4863 27.3516 38.334 27.3516C39.127 27.3516 39.7539 27.5605 40.2148 27.9785C40.6758 28.3926 40.9062 28.9453 40.9062 29.6367C40.9062 30.4766 40.3711 31.4766 39.3008 32.6367L37.0156 35.1152H41.2988V36ZM49.0273 34.8809C48.7383 35.2949 48.334 35.6055 47.8145 35.8125C47.2988 36.0156 46.6973 36.1172 46.0098 36.1172C45.3145 36.1172 44.6973 35.9551 44.1582 35.6309C43.6191 35.3027 43.2012 34.8379 42.9043 34.2363C42.6113 33.6348 42.4609 32.9375 42.4531 32.1445V31.4004C42.4531 30.1152 42.752 29.1191 43.3496 28.4121C43.9512 27.7051 44.7949 27.3516 45.8809 27.3516C46.7715 27.3516 47.4883 27.5801 48.0312 28.0371C48.5742 28.4902 48.9062 29.1348 49.0273 29.9707H47.9023C47.6914 28.8418 47.0195 28.2773 45.8867 28.2773C45.1328 28.2773 44.5605 28.543 44.1699 29.0742C43.7832 29.6016 43.5879 30.3672 43.584 31.3711V32.0684C43.584 33.0254 43.8027 33.7871 44.2402 34.3535C44.6777 34.916 45.2695 35.1973 46.0156 35.1973C46.4375 35.1973 46.8066 35.1504 47.123 35.0566C47.4395 34.9629 47.7012 34.8047 47.9082 34.582V32.666H45.9336V31.752H49.0273V34.8809ZM55.9766 32.3613C55.9766 33.6309 55.7598 34.5742 55.3262 35.1914C54.8926 35.8086 54.2148 36.1172 53.293 36.1172C52.3828 36.1172 51.709 35.8164 51.2715 35.2148C50.834 34.6094 50.6074 33.707 50.5918 32.5078V31.0605C50.5918 29.8066 50.8086 28.875 51.2422 28.2656C51.6758 27.6562 52.3555 27.3516 53.2812 27.3516C54.1992 27.3516 54.875 27.6465 55.3086 28.2363C55.7422 28.8223 55.9648 29.7285 55.9766 30.9551V32.3613ZM54.8926 30.8789C54.8926 29.9609 54.7637 29.293 54.5059 28.875C54.248 28.4531 53.8398 28.2422 53.2812 28.2422C52.7266 28.2422 52.3223 28.4512 52.0684 28.8691C51.8145 29.2871 51.6836 29.9297 51.6758 30.7969V32.5312C51.6758 33.4531 51.8086 34.1348 52.0742 34.5762C52.3438 35.0137 52.75 35.2324 53.293 35.2324C53.8281 35.2324 54.2246 35.0254 54.4824 34.6113C54.7441 34.1973 54.8809 33.5449 54.8926 32.6543V30.8789ZM58.7715 32.6602V36H57.6465V27.4688H60.793C61.7266 27.4688 62.457 27.707 62.9844 28.1836C63.5156 28.6602 63.7812 29.291 63.7812 30.0762C63.7812 30.9043 63.5215 31.543 63.002 31.9922C62.4863 32.4375 61.7461 32.6602 60.7812 32.6602H58.7715ZM58.7715 31.7402H60.793C61.3945 31.7402 61.8555 31.5996 62.1758 31.3184C62.4961 31.0332 62.6562 30.623 62.6562 30.0879C62.6562 29.5801 62.4961 29.1738 62.1758 28.8691C61.8555 28.5645 61.416 28.4062 60.8574 28.3945H58.7715V31.7402Z" fill="black"/>
<line opacity="0.5" x1="95" y1="11" x2="95" y2="53" stroke="black" stroke-width="2" stroke-dasharray="4 4"/>
</svg>
